<?xml version="1.0" standalone="no"?>
<!DOCTYPE svg PUBLIC "-//W3C//DTD SVG 20010904//EN"
 "http://www.w3.org/TR/2001/REC-SVG-20010904/DTD/svg10.dtd">
<svg version="1.0" xmlns="http://www.w3.org/2000/svg"
 width="209.000000pt" height="91.000000pt" viewBox="0 0 209.000000 91.000000"
 preserveAspectRatio="xMidYMid meet">
<metadata>
Created by potrace 1.10, written by Peter Selinger 2001-2011
</metadata>
<g transform="translate(0.000000,91.000000) scale(0.100000,-0.100000)"
fill="#000000" stroke="none">
<path d="M1131 750 c3 -66 -2 -78 -21 -55 -18 21 -73 19 -103 -6 -52 -40 -59
-158 -11 -206 30 -30 86 -31 114 -3 24 24 28 25 26 4 0 -10 8 -18 22 -20 l22
-4 0 175 0 175 -26 0 c-25 0 -25 -2 -23 -60z m-3 -157 c3 -55 1 -61 -23 -77
-56 -37 -99 3 -91 84 6 61 34 85 79 67 30 -13 32 -16 35 -74z"/>
<path d="M1562 612 c-30 -97 -56 -185 -59 -194 -4 -13 0 -18 16 -18 11 0 21 2
21 4 0 3 25 87 55 187 30 100 55 186 55 191 0 4 -8 8 -17 8 -15 0 -29 -35 -71
-178z"/>
<path d="M262 662 l-132 -67 125 -63 c69 -34 130 -62 135 -62 6 0 10 8 10 18
0 14 -25 31 -90 61 -49 24 -90 45 -90 46 0 2 41 23 90 47 74 35 90 47 90 65 0
13 -1 23 -2 22 -2 0 -63 -30 -136 -67z"/>
<path d="M1750 705 c0 -16 19 -30 85 -63 48 -23 84 -46 81 -50 -2 -4 -41 -25
-85 -47 -64 -31 -81 -44 -81 -60 0 -20 11 -16 128 43 70 36 128 65 129 66 1 1
-57 31 -128 67 -117 59 -129 63 -129 44z"/>
<path d="M513 691 c-91 -56 -49 -231 55 -231 57 0 82 10 82 32 0 16 -5 18 -34
13 -47 -9 -74 1 -91 36 -17 33 -14 69 11 106 14 23 21 25 66 21 45 -5 49 -4
46 16 -4 30 -90 35 -135 7z"/>
<path d="M733 691 c-58 -37 -68 -141 -18 -198 20 -24 31 -28 79 -28 47 0 60 4
83 28 25 24 28 35 28 92 0 56 -3 68 -26 91 -36 36 -102 43 -146 15z m112 -44
c21 -30 19 -100 -3 -127 -20 -25 -63 -30 -86 -11 -20 17 -29 65 -22 107 12 59
79 77 111 31z"/>
<path d="M1288 687 c-91 -74 -41 -227 74 -227 53 0 78 10 78 32 0 15 -5 18
-20 13 -47 -15 -83 -8 -107 19 -42 49 -33 58 53 54 l75 -3 -4 35 c-10 92 -85
131 -149 77z m100 -56 c3 -19 -1 -21 -47 -21 -57 0 -63 9 -26 46 24 24 28 25
48 11 12 -8 23 -24 25 -36z"/>
<path d="M1110 310 c0 -11 7 -20 15 -20 8 0 15 6 15 14 0 8 -7 16 -15 20 -10
4 -15 -1 -15 -14z"/>
<path d="M510 163 c0 -88 2 -103 16 -103 13 0 15 7 10 31 -6 30 -5 30 24 24
24 -5 35 -1 56 20 23 23 26 32 21 68 -7 51 -27 67 -84 65 l-43 -2 0 -103z m82
70 c20 -18 24 -63 6 -81 -45 -45 -86 33 -45 86 12 16 17 15 39 -5z"/>
<path d="M676 254 c-20 -20 -20 -34 -1 -34 8 0 15 4 15 9 0 15 30 21 51 11 29
-16 23 -28 -19 -35 -52 -8 -64 -18 -64 -50 0 -41 39 -58 82 -35 13 7 21 7 25
0 3 -5 10 -10 16 -10 14 0 2 142 -13 151 -22 14 -76 10 -92 -7z m84 -78 c0
-25 -40 -47 -62 -35 -15 8 -17 13 -8 24 10 12 21 16 63 24 4 0 7 -5 7 -13z"/>
<path d="M830 256 c-24 -29 -8 -60 38 -75 45 -14 51 -34 12 -39 -15 -3 -29 3
-37 14 -9 13 -16 15 -24 7 -15 -15 23 -53 54 -53 30 0 67 27 67 49 0 22 -15
35 -55 48 -16 5 -30 16 -30 23 0 20 21 23 38 5 19 -18 37 -20 37 -2 0 35 -75
52 -100 23z"/>
<path d="M970 256 c-24 -29 -8 -60 38 -75 45 -14 51 -34 12 -39 -15 -3 -29 3
-37 14 -9 13 -16 15 -24 7 -15 -15 23 -53 54 -53 30 0 67 27 67 49 0 22 -15
35 -55 48 -16 5 -30 16 -30 23 0 20 21 23 38 5 19 -18 37 -20 37 -2 0 35 -75
52 -100 23z"/>
<path d="M1110 189 c0 -60 3 -80 13 -77 8 3 13 31 15 81 2 64 0 77 -13 77 -12
0 -15 -15 -15 -81z"/>
<path d="M1186 251 c-9 -10 -19 -34 -23 -54 -10 -67 65 -111 117 -69 28 23 30
94 4 123 -22 25 -76 25 -98 0z m85 -29 c0 -4 2 -16 4 -26 9 -49 -52 -79 -75
-37 -15 29 -12 49 10 71 16 16 25 18 40 10 11 -6 20 -14 21 -18z"/>
<path d="M1330 188 c0 -63 3 -78 15 -78 12 0 15 13 15 60 0 47 4 61 18 69 29
16 42 -6 42 -71 0 -45 3 -58 15 -58 12 0 15 14 15 69 0 81 -8 92 -73 89 l-47
-2 0 -78z"/>
</g>
</svg>
