<?xml version="1.0" standalone="no"?>
<!DOCTYPE svg PUBLIC "-//W3C//DTD SVG 20010904//EN"
 "http://www.w3.org/TR/2001/REC-SVG-20010904/DTD/svg10.dtd">
<svg version="1.0" xmlns="http://www.w3.org/2000/svg"
 width="900.000000pt" height="576.000000pt" viewBox="0 0 900.000000 576.000000"
 preserveAspectRatio="xMidYMid meet">
<metadata>
Created by potrace 1.10, written by Peter Selinger 2001-2011
</metadata>
<g transform="translate(0.000000,576.000000) scale(0.100000,-0.100000)"
fill="#000000" stroke="none">
<path d="M518 5059 c-17 -9 -18 -124 -18 -2174 l0 -2163 36 -21 35 -21 3868 0
c3324 0 3870 2 3887 14 19 14 19 51 24 2188 3 1443 2 2175 -5 2180 -16 12
-7807 9 -7827 -3z m7780 -2176 c1 -1270 -2 -2139 -7 -2142 -5 -3 -1747 -4
-3870 -1 l-3861 5 -1 2132 c-1 1172 1 2135 4 2140 3 4 1744 7 3869 6 l3863 -3
3 -2137z"/>
<path d="M5126 4500 c-5 -10 13 -486 19 -517 6 -26 4 -32 -15 -38 -17 -5 -29
-1 -47 19 -32 35 -98 76 -121 76 -10 0 -27 7 -38 15 -43 32 -177 15 -293 -38
-59 -27 -152 -122 -180 -183 -12 -27 -28 -62 -36 -79 -43 -95 -53 -353 -19
-480 31 -117 59 -170 122 -230 79 -77 116 -89 267 -89 122 -1 133 1 181 26 56
29 99 75 121 126 10 23 20 32 37 32 15 0 26 7 29 20 3 11 13 20 22 20 10 0 15
6 13 18 -2 9 5 33 17 52 12 19 32 60 44 90 22 52 23 62 18 222 -7 175 -9 186
-62 264 -31 46 -31 53 0 95 49 69 57 98 62 239 5 151 9 173 24 150 6 -9 9 -76
8 -155 -1 -77 -1 -219 0 -315 1 -96 -2 -220 -5 -275 -3 -55 -1 -158 5 -230 10
-105 10 -138 -1 -170 -16 -48 -39 -55 -69 -21 -26 29 -39 33 -39 11 0 -8 -9
-15 -19 -15 -14 0 -20 -9 -24 -37 -3 -21 -9 -59 -13 -85 -3 -27 -3 -48 2 -49
64 -5 284 -2 284 4 0 9 0 1515 0 1525 0 8 -290 10 -294 2z m-63 -685 c45 -33
67 -55 67 -69 1 -12 0 -111 0 -221 l-1 -200 -50 -51 c-61 -61 -139 -104 -192
-104 -72 0 -143 55 -175 135 -35 87 -32 310 7 409 19 50 87 131 125 147 12 5
50 7 86 5 60 -3 72 -7 133 -51z m-443 -35 c-55 -110 -61 -136 -56 -282 5 -169
25 -229 108 -329 21 -26 38 -52 38 -58 0 -19 -56 -12 -86 11 -77 60 -102 127
-110 303 -3 61 -7 119 -9 130 -3 11 0 34 5 50 5 17 14 50 21 75 7 25 26 71 42
103 24 45 35 57 54 57 l23 0 -30 -60z"/>
<path d="M1705 4102 c-22 -15 -168 -92 -325 -171 -157 -78 -292 -146 -300
-151 -8 -5 -62 -32 -120 -60 -58 -28 -112 -55 -120 -60 -22 -13 -97 -46 -165
-74 -76 -31 -79 -51 -10 -78 45 -17 378 -177 415 -198 8 -5 62 -32 120 -60 58
-28 112 -55 120 -60 8 -4 89 -45 180 -91 91 -46 184 -96 207 -111 63 -43 71
-34 68 78 -3 102 -4 105 -65 129 -23 10 -203 95 -220 105 -8 5 -62 32 -120 60
-58 28 -112 55 -120 60 -26 16 -117 57 -207 95 -24 10 -43 23 -43 30 0 7 19
20 43 30 95 41 173 76 187 85 8 5 29 16 45 24 54 25 200 97 215 106 8 5 75 38
149 74 l134 64 2 89 c1 79 -6 114 -24 113 -3 0 -24 -13 -46 -28z"/>
<path d="M6978 4118 c-2 -7 -2 -53 0 -103 l4 -90 132 -63 c72 -35 138 -67 146
-72 8 -4 62 -31 120 -59 58 -29 112 -56 120 -61 8 -6 24 -14 35 -19 36 -16
139 -62 173 -77 17 -8 32 -21 32 -29 0 -8 -15 -21 -32 -29 -34 -15 -137 -61
-173 -77 -11 -5 -27 -13 -35 -19 -8 -5 -62 -32 -120 -61 -58 -28 -112 -55
-120 -59 -8 -5 -74 -37 -147 -72 l-132 -63 -2 -80 c-2 -89 -1 -116 7 -124 2
-3 19 4 37 14 18 11 50 29 72 41 75 42 962 484 970 484 19 0 85 35 85 45 0 6
-19 19 -42 29 -88 36 -184 81 -199 93 -8 7 -20 13 -25 13 -9 0 -204 97 -261
130 -10 6 -25 13 -33 16 -24 10 -173 84 -207 104 -10 6 -25 13 -33 16 -8 3
-46 21 -85 41 -89 44 -96 47 -120 61 -11 7 -30 16 -43 22 -12 5 -39 21 -60 35
-41 28 -58 31 -64 13z"/>
<path d="M2500 4055 c-19 -7 -47 -14 -62 -14 -36 -1 -151 -55 -206 -97 -49
-37 -71 -63 -102 -119 -11 -22 -25 -47 -29 -55 -36 -67 -53 -198 -45 -345 4
-58 12 -109 20 -122 8 -12 14 -28 14 -34 0 -50 104 -183 187 -240 86 -60 149
-74 333 -74 149 0 301 16 322 34 3 3 8 51 9 106 3 89 1 100 -14 103 -10 2 -23
-1 -30 -6 -34 -28 -134 -52 -218 -52 -73 0 -93 4 -135 26 -125 66 -184 175
-184 345 0 175 85 310 222 351 47 14 169 -1 255 -32 32 -12 66 -23 76 -27 15
-5 17 4 17 104 0 71 -4 113 -12 121 -7 7 -35 12 -63 12 -27 0 -75 7 -105 15
-68 18 -203 18 -250 0z m-162 -217 c-6 -18 -28 -21 -28 -4 0 9 7 16 16 16 9 0
14 -5 12 -12z m-28 -45 c0 -8 -8 -27 -18 -41 -24 -35 -39 -76 -47 -132 -12
-78 -12 -184 0 -210 7 -14 15 -46 19 -72 4 -26 20 -66 36 -90 16 -24 30 -47
30 -52 0 -5 7 -18 17 -28 15 -17 15 -18 -3 -18 -25 0 -86 63 -112 115 -60 121
-68 315 -18 428 43 95 96 151 96 100z"/>
<path d="M3545 4055 c-16 -8 -43 -14 -58 -15 -16 0 -41 -6 -55 -13 -15 -8 -44
-22 -65 -32 -109 -53 -207 -187 -238 -325 -17 -81 -17 -266 1 -340 21 -87 62
-167 113 -220 74 -77 116 -104 211 -137 66 -23 324 -25 401 -4 82 23 169 74
225 130 25 26 80 111 80 125 0 6 5 17 11 23 6 6 15 29 20 50 4 21 12 56 18 78
14 52 14 208 0 260 -6 22 -13 51 -16 65 -13 63 -79 174 -135 224 -61 56 -171
116 -212 116 -13 0 -43 7 -66 15 -53 19 -194 19 -235 0z m211 -201 c44 -17
100 -90 124 -158 42 -123 34 -329 -16 -433 -50 -103 -149 -156 -247 -131 -27
7 -52 18 -54 25 -3 7 -9 13 -15 13 -17 0 -59 54 -82 105 -34 75 -63 238 -48
278 6 18 14 55 18 82 16 114 90 212 179 237 51 14 70 12 141 -18z m-426 -121
c0 -14 -8 -35 -17 -45 -14 -16 -16 -40 -14 -165 2 -150 12 -209 51 -287 11
-22 18 -41 15 -44 -17 -17 -82 88 -100 163 -4 17 -7 95 -6 175 2 134 4 147 28
187 29 49 43 55 43 16z m718 -24 c21 -37 25 -61 30 -163 5 -126 -6 -206 -37
-266 -39 -74 -46 -41 -19 85 17 77 13 273 -7 294 -18 21 -21 105 -3 99 7 -3
23 -24 36 -49z"/>
<path d="M6100 4055 c-14 -8 -36 -14 -50 -15 -41 0 -144 -58 -201 -113 -127
-122 -181 -324 -144 -542 9 -55 23 -110 31 -122 8 -12 14 -27 14 -32 0 -26 85
-132 136 -171 118 -89 231 -116 444 -107 123 5 306 31 321 46 4 3 9 50 11 104
6 116 3 120 -75 90 -240 -93 -439 -60 -536 89 -17 26 -31 52 -31 58 0 7 -7 27
-16 46 -9 18 -14 39 -12 46 4 10 77 12 338 9 l333 -3 -7 128 c-4 70 -14 144
-21 163 -7 20 -21 62 -31 95 -14 43 -34 75 -77 122 -32 35 -67 64 -77 64 -10
0 -23 7 -30 15 -7 8 -25 15 -40 15 -15 0 -44 7 -63 15 -47 20 -183 20 -217 0z
m148 -182 c35 -6 86 -56 103 -102 20 -52 37 -130 33 -148 -5 -17 -19 -18 -197
-18 l-192 1 -3 23 c-2 12 4 37 12 56 9 18 16 38 16 44 0 17 44 83 71 108 31
27 90 53 109 46 8 -2 30 -7 48 -10z m-368 -185 c0 -7 18 -48 41 -91 l41 -78
-25 -37 c-39 -59 -49 -94 -37 -126 5 -15 10 -39 10 -53 0 -13 9 -36 20 -50 25
-32 26 -56 3 -51 -26 5 -79 112 -99 197 -20 89 -15 208 12 264 17 36 34 49 34
25z"/>
<path d="M4972 2148 c-14 -14 -16 -106 -3 -126 9 -15 90 -20 109 -8 7 4 12 33
12 70 0 58 -2 64 -22 70 -37 10 -83 7 -96 -6z"/>
<path d="M2584 1906 c-18 -8 -35 -19 -38 -25 -4 -6 -16 -15 -26 -21 -16 -9
-22 -5 -35 20 -14 28 -20 31 -56 28 l-40 -3 -2 -447 c-2 -491 -7 -458 61 -458
61 0 66 7 57 96 -4 44 -8 106 -9 139 -1 55 1 60 22 63 12 2 22 0 22 -5 0 -5
15 -17 33 -28 46 -28 157 -26 213 2 51 27 101 78 121 123 25 57 52 202 41 223
-5 9 -7 21 -4 25 7 12 -13 90 -36 139 -22 47 -55 84 -106 115 -45 27 -171 36
-218 14z m170 -116 c55 -49 79 -111 79 -208 0 -49 -5 -88 -11 -95 -7 -6 -12
-20 -12 -31 0 -11 -23 -41 -51 -68 -47 -44 -55 -48 -101 -48 -43 0 -54 5 -89
38 -54 49 -68 77 -75 159 -10 106 8 172 63 233 44 49 46 50 104 50 51 0 63 -4
93 -30z"/>
<path d="M3217 1910 c-59 -15 -93 -36 -131 -83 -42 -51 -55 -97 -33 -116 9 -7
35 -11 64 -9 41 3 48 6 51 26 2 13 19 38 38 57 33 33 38 35 105 35 102 0 151
-31 164 -102 6 -31 4 -38 -17 -51 -13 -9 -60 -18 -108 -22 -132 -10 -242 -44
-278 -85 -28 -32 -52 -97 -52 -142 0 -37 6 -55 33 -89 41 -54 92 -80 171 -86
74 -6 154 14 204 51 40 29 57 25 71 -15 9 -27 13 -29 65 -29 55 0 56 1 56 29
0 16 -7 34 -15 41 -12 10 -15 50 -15 239 -1 215 -2 228 -23 266 -35 62 -98 89
-217 92 -52 1 -112 -2 -133 -7z m257 -347 c12 -30 -6 -107 -33 -142 -44 -58
-91 -81 -167 -81 -63 0 -69 2 -100 35 -21 21 -34 44 -34 60 0 36 51 83 98 91
105 17 188 36 197 45 14 14 32 11 39 -8z"/>
<path d="M3851 1909 c-49 -15 -80 -38 -112 -83 -23 -31 -29 -50 -29 -93 0 -57
15 -91 58 -130 14 -13 33 -23 42 -23 9 0 21 -5 27 -11 11 -11 38 -19 150 -44
34 -7 72 -19 85 -26 49 -26 61 -68 30 -105 -33 -40 -69 -54 -135 -54 -54 0
-67 4 -95 28 -18 15 -40 43 -50 62 -16 33 -20 35 -65 34 -62 0 -73 -12 -57
-61 19 -57 58 -101 114 -131 44 -23 63 -26 146 -27 115 0 170 19 226 77 38 40
38 42 39 122 0 130 -26 151 -276 215 -113 29 -137 49 -124 103 10 39 60 59
140 56 l70 -3 35 -47 c32 -44 39 -48 76 -48 22 0 48 6 58 13 16 12 16 15 -3
57 -39 89 -98 122 -226 126 -49 2 -105 -1 -124 -7z"/>
<path d="M4446 1905 c-22 -8 -51 -22 -65 -33 -62 -45 -88 -150 -54 -216 18
-35 61 -75 83 -76 8 0 24 -7 34 -15 11 -8 32 -15 47 -15 15 0 30 -4 33 -9 3
-4 25 -11 50 -14 64 -9 122 -35 141 -63 14 -22 14 -27 0 -53 -23 -46 -73 -71
-142 -71 -50 0 -66 5 -100 29 -26 19 -42 40 -46 59 -7 36 -24 43 -82 35 -49
-6 -52 -12 -35 -75 13 -44 56 -90 114 -121 58 -31 219 -31 287 0 103 47 151
146 117 244 -23 68 -80 99 -263 144 -38 9 -85 24 -102 33 -28 14 -33 22 -33
53 0 53 44 79 131 79 71 0 93 -13 125 -67 16 -29 23 -33 60 -33 79 0 86 11 56
78 -23 51 -70 90 -129 108 -59 18 -176 17 -227 -1z"/>
<path d="M5399 1911 c-72 -22 -143 -80 -168 -136 -33 -75 -46 -183 -32 -271
22 -131 63 -192 161 -237 63 -29 205 -29 271 1 111 49 170 160 169 320 -1 154
-57 252 -175 308 -39 19 -66 24 -125 23 -41 0 -87 -4 -101 -8z m198 -127 c60
-49 83 -106 85 -203 1 -97 -27 -160 -90 -208 -37 -28 -52 -33 -100 -33 -52 0
-61 4 -99 38 -55 49 -75 93 -81 173 -7 105 12 164 70 221 48 47 51 48 110 48
55 0 65 -3 105 -36z"/>
<path d="M6113 1905 c-17 -7 -41 -23 -53 -35 -27 -27 -55 -22 -55 10 0 23 -4
25 -49 25 l-49 0 0 -325 -1 -325 57 -3 c49 -3 57 -1 58 15 0 10 0 107 -1 216
-1 232 5 255 82 306 77 51 164 36 202 -34 15 -27 17 -62 15 -259 -1 -140 2
-231 8 -237 6 -6 32 -9 59 -7 l49 3 3 251 c2 231 1 254 -17 295 -25 56 -55 84
-110 104 -54 19 -155 19 -198 0z"/>
<path d="M4969 1903 c0 -9 0 -633 1 -646 0 -4 26 -7 57 -5 l56 3 1 325 0 325
-57 3 c-31 2 -57 -1 -58 -5z"/>
<path d="M801 1191 c-8 -5 -11 -16 -8 -25 6 -15 72 -16 756 -14 742 3 804 6
759 34 -18 12 -1489 17 -1507 5z"/>
<path d="M6127 1194 c-4 -4 -780 -8 -1726 -8 -946 -1 -1723 -5 -1727 -9 -4 -4
-5 -10 -1 -13 3 -4 1217 -8 2697 -10 2480 -4 2691 -3 2697 12 3 9 0 20 -8 25
-12 8 -1586 5 -1684 -3 -16 -2 -78 1 -136 5 -58 4 -108 4 -112 1z"/>
</g>
</svg>
